<?xml version="1.0" encoding="UTF-8"?>
<svg width="24px" height="24px" viewBox="0 0 24 24" version="1.1" xmlns="http://www.w3.org/2000/svg">
    <g stroke="none" stroke-width="1" fill="none" fill-rule="evenodd">
        <path d="M12,2 C6.48,2 2,6.48 2,12 C2,17.52 6.48,22 12,22 C17.52,22 22,17.52 22,12 C22,6.48 17.52,2 12,2 Z M17,13 L13,13 L13,17 C13,17.55 12.55,18 12,18 C11.45,18 11,17.55 11,17 L11,13 L7,13 C6.45,13 6,12.55 6,12 C6,11.45 6.45,11 7,11 L11,11 L11,7 C11,6.45 11.45,6 12,6 C12.55,6 13,6.45 13,7 L13,11 L17,11 C17.55,11 18,11.45 18,12 C18,12.55 17.55,13 17,13 Z" fill="#1A1A1A"></path>
    </g>
</svg>