<?xml version="1.0" encoding="UTF-8"?>
<svg width="24px" height="24px" viewBox="0 0 24 24" version="1.1" xmlns="http://www.w3.org/2000/svg">
    <g stroke="none" stroke-width="1" fill="none" fill-rule="evenodd">
        <path d="M12,2 C6.48,2 2,6.48 2,12 C2,17.52 6.48,22 12,22 C17.52,22 22,17.52 22,12 C22,6.48 17.52,2 12,2 Z M12,20 C7.59,20 4,16.41 4,12 C4,7.59 7.59,4 12,4 C16.41,4 20,7.59 20,12 C20,16.41 16.41,20 12,20 Z M16.59,7.58 L10,14.17 L7.41,11.59 C7.02,11.2 6.39,11.2 6,11.59 C5.61,11.98 5.61,12.61 6,13 L9.5,16.5 C9.89,16.89 10.52,16.89 10.91,16.5 L18.41,9 C18.8,8.61 18.8,7.98 18.41,7.59 C18.02,7.2 17.39,7.2 17,7.59 L16.59,7.58 Z" fill="#1A1A1A"></path>
    </g>
</svg>