<?xml version="1.0" encoding="UTF-8"?>
<svg width="24px" height="24px" viewBox="0 0 24 24" version="1.1" xmlns="http://www.w3.org/2000/svg">
    <g stroke="none" stroke-width="1" fill="none" fill-rule="evenodd">
        <path d="M12,2 C17.52,2 22,6.48 22,12 C22,17.52 17.52,22 12,22 C6.48,22 2,17.52 2,12 C2,6.48 6.48,2 12,2 Z M12,4 C7.58,4 4,7.58 4,12 C4,16.42 7.58,20 12,20 C16.42,20 20,16.42 20,12 C20,7.58 16.42,4 12,4 Z M12,11 C12.55,11 13,11.45 13,12 L13,16 C13,16.55 12.55,17 12,17 C11.45,17 11,16.55 11,16 L11,12 C11,11.45 11.45,11 12,11 Z M12,7 C12.83,7 13.5,7.67 13.5,8.5 C13.5,9.33 12.83,10 12,10 C11.17,10 10.5,9.33 10.5,8.5 C10.5,7.67 11.17,7 12,7 Z" fill="#1A1A1A"></path>
    </g>
</svg>