<?xml version="1.0" encoding="UTF-8"?>
<svg width="24px" height="24px" viewBox="0 0 24 24" version="1.1" xmlns="http://www.w3.org/2000/svg">
    <g stroke="none" stroke-width="1" fill="none" fill-rule="evenodd">
        <path d="M13.5,3 L14.5,3 C14.78,3 15,3.22 15,3.5 L15,20.5 C15,20.78 14.78,21 14.5,21 L13.5,21 C13.22,21 13,20.78 13,20.5 L13,3.5 C13,3.22 13.22,3 13.5,3 Z M9.5,3 L10.5,3 C10.78,3 11,3.22 11,3.5 L11,20.5 C11,20.78 10.78,21 10.5,21 L9.5,21 C9.22,21 9,20.78 9,20.5 L9,3.5 C9,3.22 9.22,3 9.5,3 Z M16.5,8 L20.5,8 C20.78,8 21,8.22 21,8.5 L21,15.5 C21,15.78 20.78,16 20.5,16 L16.5,16 C16.22,16 16,15.78 16,15.5 L16,8.5 C16,8.22 16.22,8 16.5,8 Z M3.5,8 L7.5,8 C7.78,8 8,8.22 8,8.5 L8,15.5 C8,15.78 7.78,16 7.5,16 L3.5,16 C3.22,16 3,15.78 3,15.5 L3,8.5 C3,8.22 3.22,8 3.5,8 Z" fill="#1A1A1A"></path>
    </g>
</svg>